<?xml version="1.0" encoding="utf-8" standalone="no"?>
<!DOCTYPE svg PUBLIC "-//W3C//DTD SVG 1.1//EN"
  "http://www.w3.org/Graphics/SVG/1.1/DTD/svg11.dtd">
<svg xmlns:xlink="http://www.w3.org/1999/xlink" width="640.8pt" height="352.8pt" viewBox="0 0 640.8 352.8" xmlns="http://www.w3.org/2000/svg" version="1.1">
 <metadata>
  <rdf:RDF xmlns:dc="http://purl.org/dc/elements/1.1/" xmlns:cc="http://creativecommons.org/ns#" xmlns:rdf="http://www.w3.org/1999/02/22-rdf-syntax-ns#">
   <cc:Work>
    <dc:type rdf:resource="http://purl.org/dc/dcmitype/StillImage"/>
    <dc:date>2026-04-21T20:20:32.085458</dc:date>
    <dc:format>image/svg+xml</dc:format>
    <dc:creator>
     <cc:Agent>
      <dc:title>Matplotlib v3.9.4, https://matplotlib.org/</dc:title>
     </cc:Agent>
    </dc:creator>
   </cc:Work>
  </rdf:RDF>
 </metadata>
 <defs>
  <style type="text/css">*{stroke-linejoin: round; stroke-linecap: butt}</style>
 </defs>
 <g id="figure_1">
  <g id="patch_1">
   <path d="M 0 352.8 
L 640.8 352.8 
L 640.8 0 
L 0 0 
z
" style="fill: #ffffff"/>
  </g>
  <g id="axes_1">
   <g id="text_1">
    <g id="patch_2">
     <path d="M 21.061219 75.951063 
L 93.562781 75.951063 
Q 96.562781 75.951063 96.562781 72.951063 
L 96.562781 63.272938 
Q 96.562781 60.272938 93.562781 60.272938 
L 21.061219 60.272938 
Q 18.061219 60.272938 18.061219 63.272938 
L 18.061219 72.951063 
Q 18.061219 75.951063 21.061219 75.951063 
z
" style="fill: #eceff4; stroke: #5e81ac; stroke-width: 1.1; stroke-linejoin: miter"/>
    </g>
    <text style="font: 10px 'DejaVu Sans', 'Bitstream Vera Sans', 'Computer Modern Sans Serif', 'Lucida Grande', 'Verdana', 'Geneva', 'Lucid', 'Arial', 'Helvetica', 'Avant Garde', sans-serif; text-anchor: middle" x="57.312" y="70.871375" transform="rotate(-0 57.312 70.871375)">Patient factors</text>
   </g>
   <g id="text_2">
    <g id="patch_3">
     <path d="M 172.808937 75.951063 
L 242.487062 75.951063 
Q 245.487062 75.951063 245.487062 72.951063 
L 245.487062 63.272938 
Q 245.487062 60.272938 242.487062 60.272938 
L 172.808937 60.272938 
Q 169.808937 60.272938 169.808937 63.272938 
L 169.808937 72.951063 
Q 169.808937 75.951063 172.808937 75.951063 
z
" style="fill: #eceff4; stroke: #5e81ac; stroke-width: 1.1; stroke-linejoin: miter"/>
    </g>
    <text style="font: 10px 'DejaVu Sans', 'Bitstream Vera Sans', 'Computer Modern Sans Serif', 'Lucida Grande', 'Verdana', 'Geneva', 'Lucid', 'Arial', 'Helvetica', 'Avant Garde', sans-serif; text-anchor: middle" x="207.648" y="70.871375" transform="rotate(-0 207.648 70.871375)">Lesion factors</text>
   </g>
   <g id="text_3">
    <g id="patch_4">
     <path d="M 316.35125 75.951063 
L 387.08875 75.951063 
Q 390.08875 75.951063 390.08875 72.951063 
L 390.08875 63.272938 
Q 390.08875 60.272938 387.08875 60.272938 
L 316.35125 60.272938 
Q 313.35125 60.272938 313.35125 63.272938 
L 313.35125 72.951063 
Q 313.35125 75.951063 316.35125 75.951063 
z
" style="fill: #eceff4; stroke: #5e81ac; stroke-width: 1.1; stroke-linejoin: miter"/>
    </g>
    <text style="font: 10px 'DejaVu Sans', 'Bitstream Vera Sans', 'Computer Modern Sans Serif', 'Lucida Grande', 'Verdana', 'Geneva', 'Lucid', 'Arial', 'Helvetica', 'Avant Garde', sans-serif; text-anchor: middle" x="351.72" y="70.871375" transform="rotate(-0 351.72 70.871375)">Calendar time</text>
   </g>
   <g id="text_4">
    <g id="patch_5">
     <path d="M 473.41075 75.951063 
L 518.17325 75.951063 
Q 521.17325 75.951063 521.17325 72.951063 
L 521.17325 63.272938 
Q 521.17325 60.272938 518.17325 60.272938 
L 473.41075 60.272938 
Q 470.41075 60.272938 470.41075 63.272938 
L 470.41075 72.951063 
Q 470.41075 75.951063 473.41075 75.951063 
z
" style="fill: #eceff4; stroke: #5e81ac; stroke-width: 1.1; stroke-linejoin: miter"/>
    </g>
    <text style="font: 10px 'DejaVu Sans', 'Bitstream Vera Sans', 'Computer Modern Sans Serif', 'Lucida Grande', 'Verdana', 'Geneva', 'Lucid', 'Arial', 'Helvetica', 'Avant Garde', sans-serif; text-anchor: middle" x="495.792" y="70.871375" transform="rotate(-0 495.792 70.871375)">Operator</text>
   </g>
   <g id="text_5">
    <g id="patch_6">
     <path d="M 269.840937 184.239062 
L 308.319062 184.239062 
Q 311.319062 184.239062 311.319062 181.239062 
L 311.319062 171.560937 
Q 311.319062 168.560937 308.319062 168.560937 
L 269.840937 168.560937 
Q 266.840937 168.560937 266.840937 171.560937 
L 266.840937 181.239062 
Q 266.840937 184.239062 269.840937 184.239062 
z
" style="fill: #eceff4; stroke: #5e81ac; stroke-width: 1.1; stroke-linejoin: miter"/>
    </g>
    <text style="font: 10px 'DejaVu Sans', 'Bitstream Vera Sans', 'Computer Modern Sans Serif', 'Lucida Grande', 'Verdana', 'Geneva', 'Lucid', 'Arial', 'Helvetica', 'Avant Garde', sans-serif; text-anchor: middle" x="289.08" y="179.159375" transform="rotate(-0 289.08 179.159375)">ATRACT</text>
   </g>
   <g id="text_6">
    <g id="patch_7">
     <path d="M 102.461125 292.527062 
L 187.554875 292.527062 
Q 190.554875 292.527062 190.554875 289.527062 
L 190.554875 279.848937 
Q 190.554875 276.848937 187.554875 276.848937 
L 102.461125 276.848937 
Q 99.461125 276.848937 99.461125 279.848937 
L 99.461125 289.527062 
Q 99.461125 292.527062 102.461125 292.527062 
z
" style="fill: #eceff4; stroke: #5e81ac; stroke-width: 1.1; stroke-linejoin: miter"/>
    </g>
    <text style="font: 10px 'DejaVu Sans', 'Bitstream Vera Sans', 'Computer Modern Sans Serif', 'Lucida Grande', 'Verdana', 'Geneva', 'Lucid', 'Arial', 'Helvetica', 'Avant Garde', sans-serif; text-anchor: middle" x="145.008" y="287.447375" transform="rotate(-0 145.008 287.447375)">Dissection speed</text>
   </g>
   <g id="text_7">
    <g id="patch_8">
     <path d="M 257.808125 292.527062 
L 320.351875 292.527062 
Q 323.351875 292.527062 323.351875 289.527062 
L 323.351875 279.848937 
Q 323.351875 276.848937 320.351875 276.848937 
L 257.808125 276.848937 
Q 254.808125 276.848937 254.808125 279.848937 
L 254.808125 289.527062 
Q 254.808125 292.527062 257.808125 292.527062 
z
" style="fill: #eceff4; stroke: #5e81ac; stroke-width: 1.1; stroke-linejoin: miter"/>
    </g>
    <text style="font: 10px 'DejaVu Sans', 'Bitstream Vera Sans', 'Computer Modern Sans Serif', 'Lucida Grande', 'Verdana', 'Geneva', 'Lucid', 'Arial', 'Helvetica', 'Avant Garde', sans-serif; text-anchor: middle" x="289.08" y="287.447375" transform="rotate(-0 289.08 287.447375)">R0 resection</text>
   </g>
   <g id="text_8">
    <g id="patch_9">
     <path d="M 393.141969 292.527062 
L 448.106031 292.527062 
Q 451.106031 292.527062 451.106031 289.527062 
L 451.106031 279.848937 
Q 451.106031 276.848937 448.106031 276.848937 
L 393.141969 276.848937 
Q 390.141969 276.848937 390.141969 279.848937 
L 390.141969 289.527062 
Q 390.141969 292.527062 393.141969 292.527062 
z
" style="fill: #eceff4; stroke: #5e81ac; stroke-width: 1.1; stroke-linejoin: miter"/>
    </g>
    <text style="font: 10px 'DejaVu Sans', 'Bitstream Vera Sans', 'Computer Modern Sans Serif', 'Lucida Grande', 'Verdana', 'Geneva', 'Lucid', 'Arial', 'Helvetica', 'Avant Garde', sans-serif; text-anchor: middle" x="420.624" y="287.447375" transform="rotate(-0 420.624 287.447375)">Perforation</text>
   </g>
   <g id="text_9">
    <g id="patch_10">
     <path d="M 502.102437 292.527062 
L 589.705562 292.527062 
Q 592.705562 292.527062 592.705562 289.527062 
L 592.705562 279.848937 
Q 592.705562 276.848937 589.705562 276.848937 
L 502.102437 276.848937 
Q 499.102437 276.848937 499.102437 279.848937 
L 499.102437 289.527062 
Q 499.102437 292.527062 502.102437 292.527062 
z
" style="fill: #eceff4; stroke: #5e81ac; stroke-width: 1.1; stroke-linejoin: miter"/>
    </g>
    <text style="font: 10px 'DejaVu Sans', 'Bitstream Vera Sans', 'Computer Modern Sans Serif', 'Lucida Grande', 'Verdana', 'Geneva', 'Lucid', 'Arial', 'Helvetica', 'Avant Garde', sans-serif; text-anchor: middle" x="545.904" y="287.447375" transform="rotate(-0 545.904 287.447375)">Delayed bleeding</text>
   </g>
   <g id="patch_11">
    <path d="M 208.848307 69.708164 
Q 248.363052 122.25474 287.071445 173.72903 
" style="fill: none; stroke: #4c566a; stroke-width: 1.2; stroke-linecap: round"/>
    <path d="M 286.265834 169.330054 
L 287.071445 173.72903 
L 283.068898 171.734134 
" style="fill: none; stroke: #4c566a; stroke-width: 1.2; stroke-linecap: round"/>
   </g>
   <g id="patch_12">
    <path d="M 350.720222 69.840352 
Q 320.401427 122.253533 290.754416 173.505377 
" style="fill: none; stroke: #4c566a; stroke-width: 1.2; stroke-linecap: round"/>
    <path d="M 294.488511 171.044374 
L 290.754416 173.505377 
L 291.026071 169.041499 
" style="fill: none; stroke: #4c566a; stroke-width: 1.2; stroke-linecap: round"/>
   </g>
   <g id="patch_13">
    <path d="M 494.022508 69.038965 
Q 392.437808 122.255053 292.041551 174.848564 
" style="fill: none; stroke: #4c566a; stroke-width: 1.2; stroke-linecap: round"/>
    <path d="M 296.512888 174.764024 
L 292.041551 174.848564 
L 294.656722 171.220771 
" style="fill: none; stroke: #4c566a; stroke-width: 1.2; stroke-linecap: round"/>
   </g>
   <g id="patch_14">
    <path d="M 58.062694 69.96593 
Q 101.16056 176.401382 143.754883 281.593274 
" style="fill: none; stroke: #4c566a; stroke-width: 1.2; stroke-linecap: round"/>
    <path d="M 144.107399 277.135053 
L 143.754883 281.593274 
L 140.399816 278.636328 
" style="fill: none; stroke: #4c566a; stroke-width: 1.2; stroke-linecap: round"/>
   </g>
   <g id="patch_15">
    <path d="M 207.092674 70.032023 
Q 176.32838 176.398685 145.93685 281.476529 
" style="fill: none; stroke: #4c566a; stroke-width: 1.2; stroke-linecap: round"/>
    <path d="M 148.969468 278.189703 
L 145.93685 281.476529 
L 145.126959 277.078339 
" style="fill: none; stroke: #4c566a; stroke-width: 1.2; stroke-linecap: round"/>
   </g>
   <g id="patch_16">
    <path d="M 494.092569 69.161238 
Q 320.40121 176.399253 147.85144 282.932444 
" style="fill: none; stroke: #4c566a; stroke-width: 1.2; stroke-linecap: round"/>
    <path d="M 152.305687 282.532848 
L 147.85144 282.932444 
L 150.204311 279.129288 
" style="fill: none; stroke: #4c566a; stroke-width: 1.2; stroke-linecap: round"/>
   </g>
   <g id="patch_17">
    <path d="M 287.481789 177.601254 
Q 217.043831 230.544127 147.678349 282.680901 
" style="fill: none; stroke: #4c566a; stroke-width: 1.2; stroke-linecap: round"/>
    <path d="M 152.077516 281.876331 
L 147.678349 282.680901 
L 149.674194 278.678826 
" style="fill: none; stroke: #4c566a; stroke-width: 1.2; stroke-linecap: round"/>
   </g>
   <g id="patch_18">
    <path d="M 208.352528 69.985758 
Q 248.364584 176.401553 287.904461 281.561544 
" style="fill: none; stroke: #4c566a; stroke-width: 1.2; stroke-linecap: round"/>
    <path d="M 288.368738 277.113573 
L 287.904461 281.561544 
L 284.62465 278.52134 
" style="fill: none; stroke: #4c566a; stroke-width: 1.2; stroke-linecap: round"/>
   </g>
   <g id="patch_19">
    <path d="M 494.413626 69.556148 
Q 392.437671 176.39825 291.38804 282.269823 
" style="fill: none; stroke: #4c566a; stroke-width: 1.2; stroke-linecap: round"/>
    <path d="M 295.596583 280.757153 
L 291.38804 282.269823 
L 292.703029 277.995387 
" style="fill: none; stroke: #4c566a; stroke-width: 1.2; stroke-linecap: round"/>
   </g>
   <g id="patch_20">
    <path d="M 289.08 178.399336 
Q 289.08 230.542995 289.08 281.345013 
" style="fill: none; stroke: #4c566a; stroke-width: 1.2; stroke-linecap: round"/>
    <path d="M 291.08 277.345013 
L 289.08 281.345013 
L 287.08 277.345013 
" style="fill: none; stroke: #4c566a; stroke-width: 1.2; stroke-linecap: round"/>
   </g>
   <g id="patch_21">
    <path d="M 59.027776 69.134801 
Q 238.966534 176.399126 417.752875 282.976477 
" style="fill: none; stroke: #4c566a; stroke-width: 1.2; stroke-linecap: round"/>
    <path d="M 415.34111 279.210393 
L 417.752875 282.976477 
L 413.292948 282.646238 
" style="fill: none; stroke: #4c566a; stroke-width: 1.2; stroke-linecap: round"/>
   </g>
   <g id="patch_22">
    <path d="M 209.048645 69.53632 
Q 314.134149 176.398118 418.278954 282.303315 
" style="fill: none; stroke: #4c566a; stroke-width: 1.2; stroke-linecap: round"/>
    <path d="M 416.900345 278.048971 
L 418.278954 282.303315 
L 414.048314 280.853595 
" style="fill: none; stroke: #4c566a; stroke-width: 1.2; stroke-linecap: round"/>
   </g>
   <g id="patch_23">
    <path d="M 495.137079 69.998977 
Q 458.208558 176.398393 421.719944 281.530338 
" style="fill: none; stroke: #4c566a; stroke-width: 1.2; stroke-linecap: round"/>
    <path d="M 424.920926 278.407245 
L 421.719944 281.530338 
L 421.142058 277.095696 
" style="fill: none; stroke: #4c566a; stroke-width: 1.2; stroke-linecap: round"/>
   </g>
   <g id="patch_24">
    <path d="M 290.623538 177.670652 
Q 354.851138 230.54329 418.04292 282.563236 
" style="fill: none; stroke: #4c566a; stroke-width: 1.2; stroke-linecap: round"/>
    <path d="M 416.22583 278.476895 
L 418.04292 282.563236 
L 413.683593 281.565104 
" style="fill: none; stroke: #4c566a; stroke-width: 1.2; stroke-linecap: round"/>
   </g>
   <g id="patch_25">
    <path d="M 59.142282 68.923301 
Q 301.607714 176.399873 542.846604 283.332762 
" style="fill: none; stroke: #4c566a; stroke-width: 1.2; stroke-linecap: round"/>
    <path d="M 540.000237 279.883387 
L 542.846604 283.332762 
L 538.379283 283.540231 
" style="fill: none; stroke: #4c566a; stroke-width: 1.2; stroke-linecap: round"/>
   </g>
   <g id="patch_26">
    <path d="M 209.33319 69.19098 
Q 376.77763 176.401044 543.092184 282.887672 
" style="fill: none; stroke: #4c566a; stroke-width: 1.2; stroke-linecap: round"/>
    <path d="M 540.801949 279.046472 
L 543.092184 282.887672 
L 538.645083 282.415141 
" style="fill: none; stroke: #4c566a; stroke-width: 1.2; stroke-linecap: round"/>
   </g>
   <g id="patch_27">
    <path d="M 496.242378 70.058461 
Q 520.847751 176.398922 545.150681 281.432276 
" style="fill: none; stroke: #4c566a; stroke-width: 1.2; stroke-linecap: round"/>
    <path d="M 546.197492 277.084381 
L 545.150681 281.432276 
L 542.300452 277.98609 
" style="fill: none; stroke: #4c566a; stroke-width: 1.2; stroke-linecap: round"/>
   </g>
   <g id="patch_28">
    <path d="M 290.925766 177.178254 
Q 417.494742 230.545156 542.827476 283.390806 
" style="fill: none; stroke: #4c566a; stroke-width: 1.2; stroke-linecap: round"/>
    <path d="M 539.918751 279.993848 
L 542.827476 283.390806 
L 538.364675 283.679612 
" style="fill: none; stroke: #4c566a; stroke-width: 1.2; stroke-linecap: round"/>
   </g>
  </g>
 </g>
</svg>
